<svg width="37" height="34" viewBox="0 0 37 34" fill="none" xmlns="http://www.w3.org/2000/svg">
<path d="M17.6009 0.214269C17.8759 0.0737474 18.1853 0 18.5 0C18.8147 0 19.1241 0.0737474 19.3991 0.214269L36.049 8.71423C36.3372 8.86151 36.5774 9.07692 36.7446 9.33815C36.9118 9.59939 37 9.89695 37 10.2C37 10.5031 36.9118 10.8007 36.7446 11.0619C36.5774 11.3231 36.3372 11.5385 36.049 11.6858L19.3991 20.1858C19.1241 20.3263 18.8147 20.4001 18.5 20.4001C18.1853 20.4001 17.8759 20.3263 17.6009 20.1858L0.95103 11.6858C0.662771 11.5385 0.422598 11.3231 0.255385 11.0619C0.088172 10.8007 0 10.5031 0 10.2C0 9.89695 0.088172 9.59939 0.255385 9.33815C0.422598 9.07692 0.662771 8.86151 0.95103 8.71423L17.6009 0.214269ZM5.66109 10.2L18.5 16.7552L31.3389 10.2L18.5 3.64486L5.66109 10.2Z" fill="#718096"/>
<path d="M0.233189 16.1747C0.351253 15.9795 0.509986 15.8077 0.700325 15.6689C0.890663 15.5302 1.10888 15.4273 1.34251 15.366C1.57614 15.3048 1.82062 15.2864 2.06197 15.312C2.30333 15.3375 2.53684 15.4066 2.74917 15.5151L18.5 23.556L34.2507 15.5151C34.6796 15.2959 35.1855 15.2423 35.6574 15.366C36.1292 15.4897 36.5283 15.7806 36.7667 16.1747C37.0052 16.5687 37.0635 17.0337 36.9289 17.4673C36.7943 17.9008 36.4777 18.2675 36.0489 18.4867L19.399 26.9866C19.1241 27.1271 18.8146 27.2009 18.5 27.2009C18.1853 27.2009 17.8759 27.1271 17.6009 26.9866L0.950983 18.4867C0.738644 18.3782 0.55164 18.2323 0.400649 18.0574C0.249658 17.8825 0.137637 17.682 0.070983 17.4673C0.0043289 17.2526 -0.0156529 17.0279 0.0121785 16.8061C0.0400099 16.5844 0.115109 16.3698 0.233189 16.1747Z" fill="#718096"/>
<path d="M0.233189 22.9735C0.351253 22.7784 0.509986 22.6065 0.700325 22.4678C0.890663 22.329 1.10888 22.2261 1.34251 22.1648C1.57614 22.1036 1.82062 22.0852 2.06197 22.1108C2.30333 22.1364 2.53684 22.2054 2.74917 22.3139L18.5 30.3549L34.2507 22.3139C34.4631 22.2054 34.6966 22.1364 34.9379 22.1108C35.1793 22.0852 35.4238 22.1036 35.6574 22.1649C35.891 22.2261 36.1092 22.329 36.2996 22.4678C36.4899 22.6065 36.6487 22.7784 36.7667 22.9735C36.8848 23.1686 36.9599 23.3832 36.9877 23.605C37.0155 23.8268 36.9956 24.0514 36.9289 24.2661C36.8622 24.4808 36.7502 24.6813 36.5992 24.8562C36.4483 25.0311 36.2613 25.177 36.0489 25.2855L19.399 33.7854C19.1241 33.926 18.8146 33.9997 18.5 33.9997C18.1853 33.9997 17.8759 33.926 17.6009 33.7854L0.950983 25.2855C0.738644 25.177 0.55164 25.0311 0.400649 24.8562C0.249658 24.6813 0.137637 24.4808 0.070983 24.2661C0.0043289 24.0514 -0.0156529 23.8268 0.0121785 23.605C0.0400099 23.3832 0.115109 23.1686 0.233189 22.9735Z" fill="#718096"/>
</svg>
