<svg width="24" height="24" viewBox="0 0 24 24" fill="none" xmlns="http://www.w3.org/2000/svg">
<path d="M11.007 21H9.605C6.02 21 4.228 21 3.114 19.865C2 18.73 2 16.903 2 13.25C2 9.597 2 7.77 3.114 6.635C4.228 5.5 6.02 5.5 9.605 5.5H13.408C16.993 5.5 18.786 5.5 19.9 6.635C20.757 7.508 20.954 8.791 21 11" stroke="black" stroke-width="1.5" stroke-linecap="round" stroke-linejoin="round"/>
<path d="M16 5.5L15.9 5.19C15.405 3.65 15.158 2.88 14.569 2.44C13.979 2 13.197 2 11.63 2H11.367C9.802 2 9.019 2 8.43 2.44C7.84 2.88 7.593 3.65 7.098 5.19L7 5.5M17.111 13.255C17.296 13.085 17.388 13 17.5 13C17.612 13 17.704 13.085 17.889 13.255L18.602 13.912C18.688 13.991 18.731 14.031 18.784 14.05C18.838 14.07 18.896 14.068 19.014 14.063L19.976 14.025C20.224 14.015 20.348 14.011 20.433 14.082C20.518 14.153 20.535 14.276 20.568 14.522L20.7 15.508C20.716 15.622 20.723 15.678 20.751 15.728C20.779 15.776 20.824 15.811 20.914 15.882L21.69 16.492C21.882 16.644 21.978 16.719 21.997 16.827C22.016 16.935 21.951 17.039 21.823 17.247L21.297 18.094C21.237 18.191 21.207 18.24 21.197 18.294C21.187 18.348 21.199 18.405 21.223 18.517L21.432 19.495C21.482 19.735 21.508 19.855 21.453 19.951C21.398 20.047 21.281 20.085 21.048 20.161L20.122 20.462C20.012 20.498 19.956 20.516 19.913 20.552C19.87 20.589 19.843 20.641 19.79 20.744L19.338 21.615C19.223 21.838 19.165 21.949 19.06 21.987C18.955 22.025 18.84 21.977 18.608 21.881L17.72 21.513C17.611 21.468 17.557 21.445 17.5 21.445C17.443 21.445 17.389 21.468 17.28 21.513L16.392 21.881C16.16 21.977 16.045 22.025 15.94 21.987C15.835 21.949 15.777 21.837 15.662 21.615L15.21 20.744C15.156 20.641 15.13 20.589 15.087 20.553C15.044 20.517 14.988 20.498 14.878 20.463L13.952 20.161C13.719 20.085 13.602 20.047 13.547 19.951C13.492 19.855 13.517 19.736 13.568 19.495L13.778 18.517C13.801 18.405 13.813 18.349 13.803 18.295C13.7825 18.2227 13.7486 18.1548 13.703 18.095L13.178 17.247C13.048 17.039 12.984 16.935 13.003 16.827C13.022 16.719 13.118 16.644 13.31 16.493L14.086 15.883C14.176 15.811 14.221 15.776 14.249 15.727C14.277 15.678 14.284 15.622 14.299 15.507L14.432 14.522C14.465 14.277 14.482 14.153 14.567 14.082C14.652 14.011 14.776 14.015 15.024 14.025L15.987 14.063C16.104 14.068 16.162 14.07 16.216 14.05C16.269 14.03 16.312 13.991 16.398 13.912L17.111 13.255Z" stroke="black" stroke-width="1.5" stroke-linecap="round" stroke-linejoin="round"/>
</svg>
