<svg width="29" height="28" viewBox="0 0 29 28" fill="none" xmlns="http://www.w3.org/2000/svg">
<path d="M21.4168 0.455451C21.7189 0.163826 22.1286 0 22.5558 0C22.983 0 23.3928 0.163826 23.6949 0.455451L28.5283 5.12217C28.8303 5.41389 29 5.80948 29 6.22196C29 6.63445 28.8303 7.03004 28.5283 7.32175L14.0281 21.3219C13.726 21.6137 13.3163 21.7776 12.889 21.7777H8.05565C7.62835 21.7777 7.21856 21.6138 6.91641 21.3221C6.61426 21.0304 6.44452 20.6347 6.44452 20.2221V15.5554C6.44461 15.1429 6.61442 14.7473 6.91658 14.4556L21.4168 0.455451ZM9.66678 16.1994V18.6666H12.222L25.1111 6.22196L22.5558 3.75482L9.66678 16.1994ZM0 6.22196C0 5.39684 0.339487 4.6055 0.943778 4.02205C1.54807 3.4386 2.36766 3.11082 3.22226 3.11082H11.2779C11.7052 3.11082 12.115 3.27471 12.4172 3.56643C12.7193 3.85816 12.889 4.25383 12.889 4.66639C12.889 5.07895 12.7193 5.47462 12.4172 5.76635C12.115 6.05807 11.7052 6.22196 11.2779 6.22196H3.22226V24.8889H22.5558V17.111C22.5558 16.6984 22.7256 16.3028 23.0277 16.011C23.3299 15.7193 23.7397 15.5554 24.167 15.5554C24.5943 15.5554 25.0041 15.7193 25.3062 16.011C25.6083 16.3028 25.7781 16.6984 25.7781 17.111V24.8889C25.7781 25.714 25.4386 26.5053 24.8343 27.0888C24.23 27.6722 23.4104 28 22.5558 28H3.22226C2.36766 28 1.54807 27.6722 0.943778 27.0888C0.339487 26.5053 0 25.714 0 24.8889V6.22196Z" fill="#718096"/>
</svg>
