<svg width="28" height="27" viewBox="0 0 28 27" fill="none" xmlns="http://www.w3.org/2000/svg">
<path d="M0.585069 0.58877C0.959801 0.227219 1.46798 0.0241106 1.99785 0.0241106C2.52772 0.0241106 3.0359 0.227219 3.41063 0.58877L13.9875 10.7967L24.5644 0.58877C24.7487 0.404572 24.9692 0.257649 25.213 0.156575C25.4568 0.0555002 25.719 0.00229803 25.9844 7.28172e-05C26.2497 -0.0021524 26.5128 0.0466433 26.7584 0.143614C27.004 0.240584 27.2271 0.383786 27.4147 0.564865C27.6023 0.745944 27.7507 0.961273 27.8512 1.19829C27.9517 1.4353 28.0022 1.68926 27.9999 1.94533C27.9976 2.2014 27.9425 2.45447 27.8378 2.68976C27.733 2.92506 27.5808 3.13786 27.39 3.31577L16.8131 13.5237L27.39 23.7316C27.754 24.0954 27.9554 24.5825 27.9508 25.0882C27.9463 25.5938 27.7361 26.0776 27.3656 26.4351C26.9951 26.7927 26.4939 26.9955 25.97 26.9999C25.446 27.0043 24.9413 26.8099 24.5644 26.4586L13.9875 16.2507L3.41063 26.4586C3.03375 26.8099 2.52898 27.0043 2.00504 26.9999C1.4811 26.9955 0.979907 26.7927 0.60941 26.4351C0.238913 26.0776 0.0287563 25.5938 0.0242034 25.0882C0.0196505 24.5825 0.221066 24.0954 0.585069 23.7316L11.1619 13.5237L0.585069 3.31577C0.21045 2.95411 0 2.46366 0 1.95227C0 1.44088 0.21045 0.950431 0.585069 0.58877Z" fill="#718096"/>
</svg>
