<svg width="35" height="31" viewBox="0 0 35 31" fill="none" xmlns="http://www.w3.org/2000/svg">
<path d="M34.3473 0.559508C34.7328 0.949643 34.9663 1.49786 34.9966 2.08372C35.0269 2.66957 34.8515 3.24515 34.5089 3.684L13.7432 30.2565C13.5606 30.4903 13.3365 30.6775 13.0856 30.8056C12.8348 30.9337 12.5629 31 12.2879 31C12.0129 31 11.7411 30.9337 11.4902 30.8056C11.2394 30.6775 11.0153 30.4903 10.8326 30.2565L0.44977 16.9703C0.126814 16.5284 -0.032486 15.9611 0.0055215 15.3881C0.043529 14.8151 0.275867 14.2814 0.653456 13.8996C1.03104 13.5179 1.52431 13.318 2.02906 13.3423C2.53381 13.3665 3.0105 13.613 3.35845 14.0296L12.287 25.4536L31.6003 0.741087C31.9435 0.302984 32.4257 0.0377798 32.9408 0.0037333C33.4559 -0.0303132 33.9618 0.169582 34.3473 0.559508Z" fill="#718096"/>
</svg>
