<svg width="24" height="24" viewBox="0 0 24 24" fill="none" xmlns="http://www.w3.org/2000/svg">
<path d="M18.75 24C21.6495 24 24 21.6495 24 18.75C24 15.8505 21.6495 13.5 18.75 13.5C15.8505 13.5 13.5 15.8505 13.5 18.75C13.5 21.6495 15.8505 24 18.75 24ZM21.2681 17.2609L19.2652 20.599C18.8887 21.2266 18.0226 21.3332 17.5051 20.8157L16.3447 19.6553C16.0518 19.3624 16.0518 18.8876 16.3447 18.5947C16.6376 18.3018 17.1124 18.3018 17.4053 18.5947L18.2261 19.4154L19.9819 16.4891C20.195 16.1339 20.6557 16.0188 21.0109 16.2319C21.3661 16.445 21.4812 16.9057 21.2681 17.2609Z" fill="#078BDE"/>
<path d="M16.5 7.5C16.5 9.98528 14.4853 12 12 12C9.51472 12 7.5 9.98528 7.5 7.5C7.5 5.01472 9.51472 3 12 3C14.4853 3 16.5 5.01472 16.5 7.5Z" fill="#078BDE"/>
<path d="M3 19.5C3 21 4.5 21 4.5 21H12.3841C12.1353 20.2962 12 19.5389 12 18.75C12 16.7195 12.8965 14.8984 14.3154 13.661C13.6156 13.5573 12.846 13.5 12 13.5C4.5 13.5 3 18 3 19.5Z" fill="#078BDE"/>
</svg>
